<mxfile host="app.diagrams.net" modified="2022-04-03T15:04:34.092Z" agent="5.0 (Macintosh; Intel Mac OS X 10_15_7) AppleWebKit/537.36 (KHTML, like Gecko) Chrome/99.0.4844.84 Safari/537.36" etag="IBRdVljsEZoQwZCzb23T" version="17.4.0" type="github">
  <diagram id="Ag5h_nLsQIPXMgWgviWW" name="Page-1">
    <mxGraphModel dx="2965" dy="1928" grid="1" gridSize="10" guides="1" tooltips="1" connect="1" arrows="1" fold="1" page="1" pageScale="1" pageWidth="827" pageHeight="1169" math="0" shadow="0">
      <root>
        <mxCell id="0" />
        <mxCell id="1" parent="0" />
        <mxCell id="54yNDIn_A7YI7GjwUaDE-2" style="edgeStyle=none;rounded=0;orthogonalLoop=1;jettySize=auto;html=1;entryX=0.5;entryY=0;entryDx=0;entryDy=0;fontSize=21;endArrow=none;endFill=0;" edge="1" parent="1" source="54yNDIn_A7YI7GjwUaDE-9" target="54yNDIn_A7YI7GjwUaDE-28">
          <mxGeometry relative="1" as="geometry">
            <Array as="points">
              <mxPoint x="520" y="620" />
              <mxPoint x="460" y="600" />
            </Array>
          </mxGeometry>
        </mxCell>
        <mxCell id="54yNDIn_A7YI7GjwUaDE-3" style="edgeStyle=none;rounded=0;orthogonalLoop=1;jettySize=auto;html=1;fontSize=21;endArrow=none;endFill=0;" edge="1" parent="1" source="54yNDIn_A7YI7GjwUaDE-9" target="54yNDIn_A7YI7GjwUaDE-28">
          <mxGeometry relative="1" as="geometry">
            <Array as="points">
              <mxPoint x="600" y="670" />
              <mxPoint x="670" y="690" />
              <mxPoint x="620" y="750" />
            </Array>
          </mxGeometry>
        </mxCell>
        <mxCell id="54yNDIn_A7YI7GjwUaDE-4" style="edgeStyle=none;rounded=0;orthogonalLoop=1;jettySize=auto;html=1;fontSize=21;endArrow=none;endFill=0;" edge="1" parent="1" source="54yNDIn_A7YI7GjwUaDE-9" target="54yNDIn_A7YI7GjwUaDE-36">
          <mxGeometry relative="1" as="geometry" />
        </mxCell>
        <mxCell id="54yNDIn_A7YI7GjwUaDE-5" style="edgeStyle=none;rounded=0;orthogonalLoop=1;jettySize=auto;html=1;fontSize=21;endArrow=none;endFill=0;" edge="1" parent="1" source="54yNDIn_A7YI7GjwUaDE-9" target="54yNDIn_A7YI7GjwUaDE-54">
          <mxGeometry relative="1" as="geometry" />
        </mxCell>
        <mxCell id="54yNDIn_A7YI7GjwUaDE-6" value="1" style="edgeLabel;html=1;align=center;verticalAlign=middle;resizable=0;points=[];fontSize=21;" vertex="1" connectable="0" parent="54yNDIn_A7YI7GjwUaDE-5">
          <mxGeometry x="-0.5087" y="1" relative="1" as="geometry">
            <mxPoint x="-20" y="-16" as="offset" />
          </mxGeometry>
        </mxCell>
        <mxCell id="54yNDIn_A7YI7GjwUaDE-7" style="edgeStyle=none;rounded=0;orthogonalLoop=1;jettySize=auto;html=1;fontSize=21;endArrow=none;endFill=0;" edge="1" parent="1" source="54yNDIn_A7YI7GjwUaDE-9" target="54yNDIn_A7YI7GjwUaDE-58">
          <mxGeometry relative="1" as="geometry" />
        </mxCell>
        <mxCell id="54yNDIn_A7YI7GjwUaDE-8" style="edgeStyle=none;rounded=0;orthogonalLoop=1;jettySize=auto;html=1;fontSize=20;endArrow=none;endFill=0;startArrow=none;" edge="1" parent="1" source="54yNDIn_A7YI7GjwUaDE-78" target="54yNDIn_A7YI7GjwUaDE-71">
          <mxGeometry relative="1" as="geometry" />
        </mxCell>
        <mxCell id="54yNDIn_A7YI7GjwUaDE-9" value="&lt;font style=&quot;font-size: 21px&quot;&gt;Mitarbeiter&lt;/font&gt;" style="rounded=0;whiteSpace=wrap;html=1;" vertex="1" parent="1">
          <mxGeometry x="630" y="550" width="190" height="90" as="geometry" />
        </mxCell>
        <mxCell id="54yNDIn_A7YI7GjwUaDE-10" style="rounded=0;orthogonalLoop=1;jettySize=auto;html=1;endArrow=none;endFill=0;" edge="1" parent="1" source="54yNDIn_A7YI7GjwUaDE-12" target="54yNDIn_A7YI7GjwUaDE-9">
          <mxGeometry relative="1" as="geometry" />
        </mxCell>
        <mxCell id="54yNDIn_A7YI7GjwUaDE-11" value="Text" style="edgeLabel;html=1;align=center;verticalAlign=middle;resizable=0;points=[];" vertex="1" connectable="0" parent="54yNDIn_A7YI7GjwUaDE-10">
          <mxGeometry x="-0.3402" y="3" relative="1" as="geometry">
            <mxPoint y="-34" as="offset" />
          </mxGeometry>
        </mxCell>
        <mxCell id="54yNDIn_A7YI7GjwUaDE-12" value="Vorname" style="rounded=1;whiteSpace=wrap;html=1;" vertex="1" parent="1">
          <mxGeometry x="300" y="480" width="120" height="60" as="geometry" />
        </mxCell>
        <mxCell id="54yNDIn_A7YI7GjwUaDE-13" style="rounded=0;orthogonalLoop=1;jettySize=auto;html=1;endArrow=none;endFill=0;" edge="1" parent="1" source="54yNDIn_A7YI7GjwUaDE-16" target="54yNDIn_A7YI7GjwUaDE-9">
          <mxGeometry relative="1" as="geometry">
            <mxPoint x="753" y="480" as="targetPoint" />
          </mxGeometry>
        </mxCell>
        <mxCell id="54yNDIn_A7YI7GjwUaDE-14" value="Text" style="edgeLabel;html=1;align=center;verticalAlign=middle;resizable=0;points=[];" vertex="1" connectable="0" parent="54yNDIn_A7YI7GjwUaDE-13">
          <mxGeometry x="-0.3402" y="3" relative="1" as="geometry">
            <mxPoint x="23" y="-23" as="offset" />
          </mxGeometry>
        </mxCell>
        <mxCell id="54yNDIn_A7YI7GjwUaDE-15" value="Text" style="edgeLabel;html=1;align=center;verticalAlign=middle;resizable=0;points=[];" vertex="1" connectable="0" parent="54yNDIn_A7YI7GjwUaDE-13">
          <mxGeometry x="0.2265" y="-2" relative="1" as="geometry">
            <mxPoint x="51" y="67" as="offset" />
          </mxGeometry>
        </mxCell>
        <mxCell id="54yNDIn_A7YI7GjwUaDE-16" value="Nachname" style="rounded=1;whiteSpace=wrap;html=1;" vertex="1" parent="1">
          <mxGeometry x="300" y="390" width="120" height="60" as="geometry" />
        </mxCell>
        <mxCell id="54yNDIn_A7YI7GjwUaDE-17" style="edgeStyle=none;rounded=0;orthogonalLoop=1;jettySize=auto;html=1;entryX=0.25;entryY=0;entryDx=0;entryDy=0;endArrow=none;endFill=0;" edge="1" parent="1" source="54yNDIn_A7YI7GjwUaDE-18" target="54yNDIn_A7YI7GjwUaDE-9">
          <mxGeometry relative="1" as="geometry" />
        </mxCell>
        <mxCell id="54yNDIn_A7YI7GjwUaDE-18" value="Mail-Adresse" style="rounded=1;whiteSpace=wrap;html=1;" vertex="1" parent="1">
          <mxGeometry x="460" y="290" width="120" height="60" as="geometry" />
        </mxCell>
        <mxCell id="54yNDIn_A7YI7GjwUaDE-19" style="edgeStyle=none;rounded=0;orthogonalLoop=1;jettySize=auto;html=1;entryX=0.641;entryY=-0.024;entryDx=0;entryDy=0;endArrow=none;endFill=0;entryPerimeter=0;" edge="1" parent="1" source="54yNDIn_A7YI7GjwUaDE-20" target="54yNDIn_A7YI7GjwUaDE-9">
          <mxGeometry relative="1" as="geometry" />
        </mxCell>
        <mxCell id="54yNDIn_A7YI7GjwUaDE-20" value="&lt;u&gt;Mitarbeiter ID&lt;/u&gt;" style="rounded=1;whiteSpace=wrap;html=1;" vertex="1" parent="1">
          <mxGeometry x="720" y="290" width="120" height="60" as="geometry" />
        </mxCell>
        <mxCell id="54yNDIn_A7YI7GjwUaDE-21" style="edgeStyle=none;rounded=0;orthogonalLoop=1;jettySize=auto;html=1;endArrow=none;endFill=0;" edge="1" parent="1" source="54yNDIn_A7YI7GjwUaDE-22" target="54yNDIn_A7YI7GjwUaDE-9">
          <mxGeometry relative="1" as="geometry" />
        </mxCell>
        <mxCell id="54yNDIn_A7YI7GjwUaDE-22" value="Urlaub in h" style="rounded=1;whiteSpace=wrap;html=1;" vertex="1" parent="1">
          <mxGeometry x="1060" y="300" width="120" height="60" as="geometry" />
        </mxCell>
        <mxCell id="54yNDIn_A7YI7GjwUaDE-23" style="edgeStyle=none;rounded=0;orthogonalLoop=1;jettySize=auto;html=1;endArrow=none;endFill=0;" edge="1" parent="1" source="54yNDIn_A7YI7GjwUaDE-24" target="54yNDIn_A7YI7GjwUaDE-9">
          <mxGeometry relative="1" as="geometry" />
        </mxCell>
        <mxCell id="54yNDIn_A7YI7GjwUaDE-24" value="Überstunden in h" style="rounded=1;whiteSpace=wrap;html=1;" vertex="1" parent="1">
          <mxGeometry x="1080" y="390" width="120" height="60" as="geometry" />
        </mxCell>
        <mxCell id="54yNDIn_A7YI7GjwUaDE-25" style="edgeStyle=none;rounded=0;orthogonalLoop=1;jettySize=auto;html=1;entryX=0;entryY=0.5;entryDx=0;entryDy=0;endArrow=none;endFill=0;" edge="1" parent="1" source="54yNDIn_A7YI7GjwUaDE-26" target="54yNDIn_A7YI7GjwUaDE-9">
          <mxGeometry relative="1" as="geometry" />
        </mxCell>
        <mxCell id="54yNDIn_A7YI7GjwUaDE-26" value="Letzte Änderungen" style="rounded=1;whiteSpace=wrap;html=1;" vertex="1" parent="1">
          <mxGeometry x="300" y="565" width="120" height="60" as="geometry" />
        </mxCell>
        <mxCell id="54yNDIn_A7YI7GjwUaDE-27" style="edgeStyle=none;rounded=0;orthogonalLoop=1;jettySize=auto;html=1;exitX=0.25;exitY=1;exitDx=0;exitDy=0;endArrow=none;endFill=0;" edge="1" parent="1" source="54yNDIn_A7YI7GjwUaDE-26" target="54yNDIn_A7YI7GjwUaDE-26">
          <mxGeometry relative="1" as="geometry" />
        </mxCell>
        <mxCell id="54yNDIn_A7YI7GjwUaDE-28" value="ist Projektleiter von" style="rhombus;whiteSpace=wrap;html=1;rounded=0;" vertex="1" parent="1">
          <mxGeometry x="470" y="715" width="145" height="80" as="geometry" />
        </mxCell>
        <mxCell id="54yNDIn_A7YI7GjwUaDE-29" style="edgeStyle=none;rounded=0;orthogonalLoop=1;jettySize=auto;html=1;fontSize=21;endArrow=none;endFill=0;" edge="1" parent="1" source="54yNDIn_A7YI7GjwUaDE-30" target="54yNDIn_A7YI7GjwUaDE-9">
          <mxGeometry relative="1" as="geometry" />
        </mxCell>
        <mxCell id="54yNDIn_A7YI7GjwUaDE-30" value="Ist Projektleiter" style="rounded=1;whiteSpace=wrap;html=1;" vertex="1" parent="1">
          <mxGeometry x="1080" y="470" width="120" height="60" as="geometry" />
        </mxCell>
        <mxCell id="54yNDIn_A7YI7GjwUaDE-31" style="edgeStyle=none;rounded=0;orthogonalLoop=1;jettySize=auto;html=1;fontSize=21;endArrow=none;endFill=0;" edge="1" parent="1" source="54yNDIn_A7YI7GjwUaDE-34" target="54yNDIn_A7YI7GjwUaDE-40">
          <mxGeometry relative="1" as="geometry" />
        </mxCell>
        <mxCell id="54yNDIn_A7YI7GjwUaDE-32" style="edgeStyle=none;rounded=0;orthogonalLoop=1;jettySize=auto;html=1;fontSize=21;endArrow=none;endFill=0;" edge="1" parent="1" source="54yNDIn_A7YI7GjwUaDE-34" target="54yNDIn_A7YI7GjwUaDE-47">
          <mxGeometry relative="1" as="geometry" />
        </mxCell>
        <mxCell id="54yNDIn_A7YI7GjwUaDE-33" value="m" style="edgeLabel;html=1;align=center;verticalAlign=middle;resizable=0;points=[];fontSize=21;" vertex="1" connectable="0" parent="54yNDIn_A7YI7GjwUaDE-32">
          <mxGeometry x="-0.0247" y="2" relative="1" as="geometry">
            <mxPoint x="-64" y="-20" as="offset" />
          </mxGeometry>
        </mxCell>
        <mxCell id="54yNDIn_A7YI7GjwUaDE-34" value="&lt;font style=&quot;font-size: 21px&quot;&gt;Projekt&lt;/font&gt;" style="rounded=0;whiteSpace=wrap;html=1;" vertex="1" parent="1">
          <mxGeometry x="630" y="920" width="190" height="90" as="geometry" />
        </mxCell>
        <mxCell id="54yNDIn_A7YI7GjwUaDE-35" style="edgeStyle=none;rounded=0;orthogonalLoop=1;jettySize=auto;html=1;fontSize=21;endArrow=none;endFill=0;" edge="1" parent="1" source="54yNDIn_A7YI7GjwUaDE-36" target="54yNDIn_A7YI7GjwUaDE-34">
          <mxGeometry relative="1" as="geometry" />
        </mxCell>
        <mxCell id="54yNDIn_A7YI7GjwUaDE-36" value="arbeitet in" style="rhombus;whiteSpace=wrap;html=1;rounded=0;" vertex="1" parent="1">
          <mxGeometry x="652.5" y="750" width="145" height="80" as="geometry" />
        </mxCell>
        <mxCell id="54yNDIn_A7YI7GjwUaDE-37" value="&lt;font style=&quot;font-size: 21px&quot;&gt;Pause&lt;/font&gt;" style="rounded=0;whiteSpace=wrap;html=1;" vertex="1" parent="1">
          <mxGeometry x="1260" y="550" width="190" height="90" as="geometry" />
        </mxCell>
        <mxCell id="54yNDIn_A7YI7GjwUaDE-38" style="edgeStyle=none;rounded=0;orthogonalLoop=1;jettySize=auto;html=1;fontSize=21;endArrow=none;endFill=0;" edge="1" parent="1" source="54yNDIn_A7YI7GjwUaDE-39" target="54yNDIn_A7YI7GjwUaDE-34">
          <mxGeometry relative="1" as="geometry" />
        </mxCell>
        <mxCell id="54yNDIn_A7YI7GjwUaDE-39" value="&lt;u&gt;Projekt ID&lt;/u&gt;" style="rounded=1;whiteSpace=wrap;html=1;" vertex="1" parent="1">
          <mxGeometry x="360" y="970" width="120" height="60" as="geometry" />
        </mxCell>
        <mxCell id="54yNDIn_A7YI7GjwUaDE-40" value="Ist-Zeit in h" style="rounded=1;whiteSpace=wrap;html=1;" vertex="1" parent="1">
          <mxGeometry x="550" y="1060" width="120" height="60" as="geometry" />
        </mxCell>
        <mxCell id="54yNDIn_A7YI7GjwUaDE-41" style="edgeStyle=none;rounded=0;orthogonalLoop=1;jettySize=auto;html=1;fontSize=21;endArrow=none;endFill=0;" edge="1" parent="1" source="54yNDIn_A7YI7GjwUaDE-42" target="54yNDIn_A7YI7GjwUaDE-34">
          <mxGeometry relative="1" as="geometry" />
        </mxCell>
        <mxCell id="54yNDIn_A7YI7GjwUaDE-42" value="Soll-Zeit in h" style="rounded=1;whiteSpace=wrap;html=1;" vertex="1" parent="1">
          <mxGeometry x="690" y="1080" width="120" height="60" as="geometry" />
        </mxCell>
        <mxCell id="54yNDIn_A7YI7GjwUaDE-43" style="edgeStyle=none;rounded=0;orthogonalLoop=1;jettySize=auto;html=1;fontSize=21;endArrow=none;endFill=0;exitX=0;exitY=0.5;exitDx=0;exitDy=0;" edge="1" parent="1" source="54yNDIn_A7YI7GjwUaDE-44" target="54yNDIn_A7YI7GjwUaDE-34">
          <mxGeometry relative="1" as="geometry">
            <mxPoint x="920" y="991.7647058823529" as="sourcePoint" />
          </mxGeometry>
        </mxCell>
        <mxCell id="54yNDIn_A7YI7GjwUaDE-44" value="Projektname" style="rounded=1;whiteSpace=wrap;html=1;" vertex="1" parent="1">
          <mxGeometry x="910" y="1070" width="120" height="60" as="geometry" />
        </mxCell>
        <mxCell id="54yNDIn_A7YI7GjwUaDE-45" value="&lt;font style=&quot;font-size: 21px&quot;&gt;Aktivität&lt;/font&gt;" style="rounded=0;whiteSpace=wrap;html=1;" vertex="1" parent="1">
          <mxGeometry x="1290" y="915" width="190" height="90" as="geometry" />
        </mxCell>
        <mxCell id="54yNDIn_A7YI7GjwUaDE-46" style="edgeStyle=none;rounded=0;orthogonalLoop=1;jettySize=auto;html=1;fontSize=21;endArrow=none;endFill=0;" edge="1" parent="1" source="54yNDIn_A7YI7GjwUaDE-47" target="54yNDIn_A7YI7GjwUaDE-45">
          <mxGeometry relative="1" as="geometry" />
        </mxCell>
        <mxCell id="54yNDIn_A7YI7GjwUaDE-47" value="hat" style="rhombus;whiteSpace=wrap;html=1;rounded=0;" vertex="1" parent="1">
          <mxGeometry x="990" y="920" width="145" height="80" as="geometry" />
        </mxCell>
        <mxCell id="54yNDIn_A7YI7GjwUaDE-48" value="n" style="edgeLabel;html=1;align=center;verticalAlign=middle;resizable=0;points=[];fontSize=21;" vertex="1" connectable="0" parent="1">
          <mxGeometry x="1280.0011570314823" y="949.998504132837" as="geometry">
            <mxPoint x="-2" y="-6" as="offset" />
          </mxGeometry>
        </mxCell>
        <mxCell id="54yNDIn_A7YI7GjwUaDE-49" style="edgeStyle=none;rounded=0;orthogonalLoop=1;jettySize=auto;html=1;fontSize=21;endArrow=none;endFill=0;" edge="1" parent="1" source="54yNDIn_A7YI7GjwUaDE-50" target="54yNDIn_A7YI7GjwUaDE-45">
          <mxGeometry relative="1" as="geometry" />
        </mxCell>
        <mxCell id="54yNDIn_A7YI7GjwUaDE-50" value="Aktivität ID" style="rounded=1;whiteSpace=wrap;html=1;fontStyle=4" vertex="1" parent="1">
          <mxGeometry x="1430" y="1060" width="120" height="60" as="geometry" />
        </mxCell>
        <mxCell id="54yNDIn_A7YI7GjwUaDE-51" style="edgeStyle=none;rounded=0;orthogonalLoop=1;jettySize=auto;html=1;fontSize=21;endArrow=none;endFill=0;" edge="1" parent="1" source="54yNDIn_A7YI7GjwUaDE-52" target="54yNDIn_A7YI7GjwUaDE-45">
          <mxGeometry relative="1" as="geometry" />
        </mxCell>
        <mxCell id="54yNDIn_A7YI7GjwUaDE-52" value="Bezeichnung" style="rounded=1;whiteSpace=wrap;html=1;fontStyle=0" vertex="1" parent="1">
          <mxGeometry x="1230" y="1060" width="120" height="60" as="geometry" />
        </mxCell>
        <mxCell id="54yNDIn_A7YI7GjwUaDE-53" style="edgeStyle=none;rounded=0;orthogonalLoop=1;jettySize=auto;html=1;fontSize=21;endArrow=none;endFill=0;" edge="1" parent="1" source="54yNDIn_A7YI7GjwUaDE-54" target="54yNDIn_A7YI7GjwUaDE-37">
          <mxGeometry relative="1" as="geometry" />
        </mxCell>
        <mxCell id="54yNDIn_A7YI7GjwUaDE-54" value="bucht" style="rhombus;whiteSpace=wrap;html=1;rounded=0;" vertex="1" parent="1">
          <mxGeometry x="980" y="560" width="145" height="80" as="geometry" />
        </mxCell>
        <mxCell id="54yNDIn_A7YI7GjwUaDE-55" value="n" style="edgeLabel;html=1;align=center;verticalAlign=middle;resizable=0;points=[];fontSize=21;" vertex="1" connectable="0" parent="1">
          <mxGeometry x="1250.0011570314823" y="584.998504132837" as="geometry">
            <mxPoint x="-2" y="-6" as="offset" />
          </mxGeometry>
        </mxCell>
        <mxCell id="54yNDIn_A7YI7GjwUaDE-56" value="&lt;font style=&quot;font-size: 21px&quot;&gt;Urlaub&lt;/font&gt;" style="rounded=0;whiteSpace=wrap;html=1;" vertex="1" parent="1">
          <mxGeometry x="1120" y="720" width="190" height="90" as="geometry" />
        </mxCell>
        <mxCell id="54yNDIn_A7YI7GjwUaDE-57" style="edgeStyle=none;rounded=0;orthogonalLoop=1;jettySize=auto;html=1;fontSize=21;endArrow=none;endFill=0;" edge="1" parent="1" source="54yNDIn_A7YI7GjwUaDE-58" target="54yNDIn_A7YI7GjwUaDE-56">
          <mxGeometry relative="1" as="geometry" />
        </mxCell>
        <mxCell id="54yNDIn_A7YI7GjwUaDE-58" value="bucht" style="rhombus;whiteSpace=wrap;html=1;rounded=0;" vertex="1" parent="1">
          <mxGeometry x="897.5" y="660" width="145" height="80" as="geometry" />
        </mxCell>
        <mxCell id="54yNDIn_A7YI7GjwUaDE-59" style="edgeStyle=none;rounded=0;orthogonalLoop=1;jettySize=auto;html=1;fontSize=21;endArrow=none;endFill=0;" edge="1" parent="1" source="54yNDIn_A7YI7GjwUaDE-60" target="54yNDIn_A7YI7GjwUaDE-37">
          <mxGeometry relative="1" as="geometry" />
        </mxCell>
        <mxCell id="54yNDIn_A7YI7GjwUaDE-60" value="Pause ID" style="rounded=1;whiteSpace=wrap;html=1;" vertex="1" parent="1">
          <mxGeometry x="1310" y="370" width="120" height="60" as="geometry" />
        </mxCell>
        <mxCell id="54yNDIn_A7YI7GjwUaDE-61" style="edgeStyle=none;rounded=0;orthogonalLoop=1;jettySize=auto;html=1;entryX=1;entryY=0.5;entryDx=0;entryDy=0;fontSize=21;endArrow=none;endFill=0;" edge="1" parent="1" source="54yNDIn_A7YI7GjwUaDE-62" target="54yNDIn_A7YI7GjwUaDE-37">
          <mxGeometry relative="1" as="geometry" />
        </mxCell>
        <mxCell id="54yNDIn_A7YI7GjwUaDE-62" value="Start" style="rounded=1;whiteSpace=wrap;html=1;" vertex="1" parent="1">
          <mxGeometry x="1500" y="450" width="120" height="60" as="geometry" />
        </mxCell>
        <mxCell id="54yNDIn_A7YI7GjwUaDE-63" style="edgeStyle=none;rounded=0;orthogonalLoop=1;jettySize=auto;html=1;fontSize=21;endArrow=none;endFill=0;" edge="1" parent="1" source="54yNDIn_A7YI7GjwUaDE-64" target="54yNDIn_A7YI7GjwUaDE-37">
          <mxGeometry relative="1" as="geometry" />
        </mxCell>
        <mxCell id="54yNDIn_A7YI7GjwUaDE-64" value="Ende" style="rounded=1;whiteSpace=wrap;html=1;" vertex="1" parent="1">
          <mxGeometry x="1510" y="610" width="120" height="60" as="geometry" />
        </mxCell>
        <mxCell id="54yNDIn_A7YI7GjwUaDE-65" style="edgeStyle=none;rounded=0;orthogonalLoop=1;jettySize=auto;html=1;fontSize=21;endArrow=none;endFill=0;" edge="1" parent="1" source="54yNDIn_A7YI7GjwUaDE-66" target="54yNDIn_A7YI7GjwUaDE-56">
          <mxGeometry relative="1" as="geometry" />
        </mxCell>
        <mxCell id="54yNDIn_A7YI7GjwUaDE-66" value="Urlaub ID" style="rounded=1;whiteSpace=wrap;html=1;" vertex="1" parent="1">
          <mxGeometry x="1410" y="750" width="120" height="60" as="geometry" />
        </mxCell>
        <mxCell id="54yNDIn_A7YI7GjwUaDE-67" style="edgeStyle=none;rounded=0;orthogonalLoop=1;jettySize=auto;html=1;fontSize=21;endArrow=none;endFill=0;" edge="1" parent="1" source="54yNDIn_A7YI7GjwUaDE-68" target="54yNDIn_A7YI7GjwUaDE-56">
          <mxGeometry relative="1" as="geometry" />
        </mxCell>
        <mxCell id="54yNDIn_A7YI7GjwUaDE-68" value="Start" style="rounded=1;whiteSpace=wrap;html=1;" vertex="1" parent="1">
          <mxGeometry x="1181" y="830" width="120" height="60" as="geometry" />
        </mxCell>
        <mxCell id="54yNDIn_A7YI7GjwUaDE-69" style="edgeStyle=none;rounded=0;orthogonalLoop=1;jettySize=auto;html=1;fontSize=21;endArrow=none;endFill=0;" edge="1" parent="1" source="54yNDIn_A7YI7GjwUaDE-70" target="54yNDIn_A7YI7GjwUaDE-56">
          <mxGeometry relative="1" as="geometry" />
        </mxCell>
        <mxCell id="54yNDIn_A7YI7GjwUaDE-70" value="Ende" style="rounded=1;whiteSpace=wrap;html=1;" vertex="1" parent="1">
          <mxGeometry x="960" y="810" width="120" height="60" as="geometry" />
        </mxCell>
        <mxCell id="54yNDIn_A7YI7GjwUaDE-71" value="&lt;font style=&quot;font-size: 20px&quot;&gt;Zeitintervallbuchung&lt;/font&gt;" style="rounded=0;whiteSpace=wrap;html=1;" vertex="1" parent="1">
          <mxGeometry x="60" y="710" width="190" height="90" as="geometry" />
        </mxCell>
        <mxCell id="54yNDIn_A7YI7GjwUaDE-72" style="edgeStyle=none;rounded=0;orthogonalLoop=1;jettySize=auto;html=1;fontSize=20;endArrow=none;endFill=0;" edge="1" parent="1" source="54yNDIn_A7YI7GjwUaDE-73" target="54yNDIn_A7YI7GjwUaDE-71">
          <mxGeometry relative="1" as="geometry" />
        </mxCell>
        <mxCell id="54yNDIn_A7YI7GjwUaDE-73" value="Zeit ID" style="rounded=1;whiteSpace=wrap;html=1;" vertex="1" parent="1">
          <mxGeometry x="30" y="915" width="120" height="60" as="geometry" />
        </mxCell>
        <mxCell id="54yNDIn_A7YI7GjwUaDE-74" style="edgeStyle=none;rounded=0;orthogonalLoop=1;jettySize=auto;html=1;fontSize=20;endArrow=none;endFill=0;" edge="1" parent="1" source="54yNDIn_A7YI7GjwUaDE-75" target="54yNDIn_A7YI7GjwUaDE-71">
          <mxGeometry relative="1" as="geometry" />
        </mxCell>
        <mxCell id="54yNDIn_A7YI7GjwUaDE-75" value="Start" style="rounded=1;whiteSpace=wrap;html=1;" vertex="1" parent="1">
          <mxGeometry x="190" y="910" width="120" height="60" as="geometry" />
        </mxCell>
        <mxCell id="54yNDIn_A7YI7GjwUaDE-76" style="edgeStyle=none;rounded=0;orthogonalLoop=1;jettySize=auto;html=1;fontSize=20;endArrow=none;endFill=0;" edge="1" parent="1" source="54yNDIn_A7YI7GjwUaDE-77" target="54yNDIn_A7YI7GjwUaDE-71">
          <mxGeometry relative="1" as="geometry" />
        </mxCell>
        <mxCell id="54yNDIn_A7YI7GjwUaDE-77" value="Ende" style="rounded=1;whiteSpace=wrap;html=1;" vertex="1" parent="1">
          <mxGeometry x="320" y="800" width="120" height="60" as="geometry" />
        </mxCell>
        <mxCell id="54yNDIn_A7YI7GjwUaDE-78" value="führt durch" style="rhombus;whiteSpace=wrap;html=1;rounded=0;" vertex="1" parent="1">
          <mxGeometry x="341" y="650" width="145" height="80" as="geometry" />
        </mxCell>
        <mxCell id="54yNDIn_A7YI7GjwUaDE-79" value="" style="edgeStyle=none;rounded=0;orthogonalLoop=1;jettySize=auto;html=1;fontSize=20;endArrow=none;endFill=0;" edge="1" parent="1" source="54yNDIn_A7YI7GjwUaDE-9" target="54yNDIn_A7YI7GjwUaDE-78">
          <mxGeometry relative="1" as="geometry">
            <mxPoint x="630" y="621.6666666666667" as="sourcePoint" />
            <mxPoint x="250" y="728.3333333333333" as="targetPoint" />
          </mxGeometry>
        </mxCell>
      </root>
    </mxGraphModel>
  </diagram>
</mxfile>
